<svg xmlns="http://www.w3.org/2000/svg" xmlns:xlink="http://www.w3.org/1999/xlink" viewBox="0 0 68 71.04"><defs><style>.a{fill:url(#a);}.b{fill:url(#b);}.c{fill:url(#c);}</style><linearGradient id="a" x1="79.87" y1="81.97" x2="124.14" y2="50.25" gradientUnits="userSpaceOnUse"><stop offset="0" stop-color="#47a0c4"/><stop offset="1" stop-color="#55a8c8"/></linearGradient><linearGradient id="b" x1="55.54" y1="83.7" x2="110.81" y2="44.09" gradientUnits="userSpaceOnUse"><stop offset="0" stop-color="#33353d"/><stop offset="1" stop-color="#464b55"/></linearGradient><linearGradient id="c" x1="47.9" y1="61.88" x2="93.01" y2="29.55" gradientUnits="userSpaceOnUse"><stop offset="0" stop-color="#e8a15b"/><stop offset="1" stop-color="#db9534"/></linearGradient></defs><title>Untitled-3</title><path class="a" d="M121,112a57.33,57.33,0,0,1-11.44-3.59,40.45,40.45,0,0,1-8.91-5c-3.36-2.56-5.47-6-7.94-9.33q-4.81-6.57-9.6-13.16L71.51,65,60.83,50.36l-6.3-8.63L54,41h67Z" transform="translate(-53 -40.96)"/><path class="b" d="M53,97.53S66,108,76,108s19-4,19-20a24,24,0,0,1,5.84-15.11,40.32,40.32,0,0,1,9.57-8.38c4.06-2.59,8.53-5.38,10.59-10V41H53Z" transform="translate(-53 -40.96)"/><path class="c" d="M53,69s8,1,12-10a18,18,0,0,1,6.74-8.34,33.44,33.44,0,0,1,8.79-4.32,37.59,37.59,0,0,1,7.58-1.6,53.1,53.1,0,0,0,6.61-1.14A17.5,17.5,0,0,0,101.19,41H53Z" transform="translate(-53 -40.96)"/></svg>